<svg id="图层_1" data-name="图层 1" xmlns="http://www.w3.org/2000/svg" viewBox="0 0 334.68 330.63"><defs><style>.cls-1{fill:#dee451;stroke:#fff;stroke-miterlimit:10;}.cls-2{fill:#00a33e;fill-rule:evenodd;}</style></defs><ellipse class="cls-1" cx="167.34" cy="165.31" rx="166.84" ry="164.81"/><path class="cls-2" d="M1043,378.2c5.61,10.52,4.35,27.8,1,37-19.12,52.57-49.43,23.78-80,53,.19,24.3,19.31,81.65,29,105,5.91,14.25,17.71,23.16,22,40,11,43.43-23.45,78.25-55,87-116.15,20.15-105.79-158,14-135-9.14-27.26-62.83-112.13-58-138,3-16.5,24.22-32.5,38-39,7.73-3.64,13.92.23,21,2C1003,397.21,1027,393,1043,378.2Z" transform="translate(-792.53 -375.98)"/></svg>