<?xml version="1.0" standalone="no"?><!DOCTYPE svg PUBLIC "-//W3C//DTD SVG 1.1//EN" "http://www.w3.org/Graphics/SVG/1.1/DTD/svg11.dtd"><svg t="1606136418713" class="icon" viewBox="0 0 3138 1024" version="1.1" xmlns="http://www.w3.org/2000/svg" p-id="2051" xmlns:xlink="http://www.w3.org/1999/xlink" width="612.890625" height="200"><defs><style type="text/css">html, * { user-select: text !important; }
</style></defs><path d="M927.01729 465.62271h109.138581v97.081806h-109.138581v-97.081806z m0 139.56129h109.138581v381.126194h-109.138581V605.150968z m-177.614451 0.363355l-233.075613-0.594581v80.136258h204.304516s48.821677 12.089806 48.821677 43.107097v28.275613h-184.980645s-72.803097 6.804645-96.156903 94.340129c-4.029935 41.125161 1.32129 61.373935 4.029935 68.674064 2.675613 7.531355 24.113548 55.956645 87.46942 68.046452h294.48258v-272.813419s-14.071742-93.712516-124.894967-109.171613z m20.05058 306.638451h-148.909419c-20.050581-8.125935-26.657032-21.603097-28.011355-24.939354-1.32129-3.303226-5.978839-15.426065-0.59458-27.648 11.99071-23.585032 32.04129-29.035355 32.04129-29.035355h145.606193v81.622709h-0.132129zM385.057032 727.700645c69.698065-36.797935 60.911484-129.684645 60.911484-129.684645C438.272 455.746065 266.273032 462.451613 266.273032 462.451613H0.363355v529.837419h300.263226c176.392258-0.660645 163.806968-139.726452 163.806967-139.726451 3.038968-92.820645-79.409548-124.861935-79.409548-124.861936z m-270.269935-162.023226h172.989935s37.689806-1.618581 50.176 28.506839c0 0 7.46529 31.876129-5.020903 53.842581 0 0-12.221935 22.461935-44.164129 27.317677H114.787097v-109.667097z m223.033806 303.037936s-11.363097 20.017548-43.173161 24.972387v0.099097H114.787097v-113.961291H293.656774l6.110968 1.090065s34.155355 6.276129 46.509419 37.326452c0 0 7.101935 28.870194-8.456258 50.47329z m1079.824516-555.470452c60.184774 0 108.742194-69.896258 108.742194-156.473806 0-86.31329-48.557419-156.242581-108.775226-156.242581-60.052645 0-108.874323 69.92929-108.874322 156.242581 0 86.544516 48.821677 156.473806 108.874322 156.473806z m259.204129 10.24c80.532645 10.636387 132.129032-76.07329 142.534194-141.774451 10.53729-65.569032-41.356387-141.774452-98.337032-154.855226-57.013677-13.212903-128.231226 79.046194-134.705549 139.164903-7.960774 73.628903 10.24 147.092645 90.508387 157.464774z m-461.460645 210.085162c109.006452-23.618065 94.075871-155.119484 90.772645-183.890581-5.285161-44.230194-56.881548-121.55871-126.843871-115.480774-88.229161 7.927742-101.07871 136.456258-101.078709 136.456258-11.99071 59.524129 28.407742 186.632258 137.149935 162.915097z m658.564129-225.775484c-96.024774 0-109.006452 89.187097-109.006451 152.278709 0 60.283871 5.153032 144.350968 124.432516 141.642323 119.279484-2.576516 106.297806-136.423226 106.297806-168.068129 0-31.248516-25.798194-125.852903-121.723871-125.852903zM1331.133935 762.285419c-3.204129 9.249032-10.273032 32.834065-4.162064 53.446194 12.221935 46.212129 51.860645 48.194065 51.860645 48.194064h57.145807V723.076129h-61.043613c-27.548903 8.291097-40.860903 29.894194-43.800775 39.176258z" fill="#1afa29" p-id="2052"></path><path d="M1873.953032 709.665032s-124.432516-97.180903-197.103484-202.289548c-98.469161-154.855226-238.426839-91.895742-285.167483-13.212903-46.608516 78.781935-119.147355 128.693677-129.552517 141.90658-10.405161 12.849548-150.362839 89.154065-119.279483 228.451097 31.050323 139.197935 140.056774 136.357161 140.056774 136.357161s80.400516 8.026839 173.749677-13.113806c93.217032-20.843355 173.485419 5.318194 173.485419 5.318193s217.880774 73.595871 277.470968-68.277677c59.557161-141.774452-33.659871-215.139097-33.659871-215.139097zM1501.184 920.609032H1359.607742c-61.307871-12.221935-85.652645-54.503226-88.592516-61.770322-3.038968-7.168-20.413935-41.125161-11.230968-98.667355 26.425806-86.31329 101.904516-92.622452 101.904516-92.622452h75.47871v-93.48129l64.082581 0.990968v345.517419h-0.099097z m263.89471-0.990967h-163.080258c-63.124645-16.450065-66.064516-61.638194-66.064517-61.638194v-182.007742l66.064517-1.123097v163.608774c4.029935 17.441032 25.434839 20.513032 25.434838 20.513033h67.28671v-182.99871h70.35871v243.645936z m674.08929-32.107355v-64.478968h-303.137032v86.082064h280.278709c17.969548 3.072 24.576-3.468387 22.858323-21.603096z m-303.137032-140.684387h304.755613v-86.082065h-304.755613v86.082065z m-114.621936-272.912517h530.927484v72.737033h-200.010322l-11.495226 46.311226h186.797419v319.223741c3.303226 44.725677-21.272774 66.196645-75.346581 64.478968h-406.296774V594.679742h185.211871l9.777549-46.311226h-219.598452v-74.45471z m819.299097 342.44542l34.353548 19.885419 36.104258 19.88542 65.602065-39.63871h-136.059871v-0.132129z m-8.192-170.446452v51.266065h175.302194c18.002581 3.336258 27.912258-1.585548 27.912258-13.212904v-38.020129H2832.516129z m-75.379613 1.651613h-27.879226V584.670968h24.576v-24.807226h75.379613v21.470968h203.214452v-19.852387h75.34658v19.852387h24.609033v62.860387h-24.476903v52.983742c-3.303226 29.762065-21.272774 44.725677-57.377033 44.725677h-294.978064v-94.373161h1.585548z m-22.858322 168.794839V760.072258H3129.145806v51.266065l-139.330064 84.331354 13.080774 6.672517c9.777548 6.672516 19.687226 8.258065 32.801032 6.672516h96.652387v62.860387h-122.979096c-16.384 0-32.768-3.303226-45.848774-8.258065l-50.770581-24.840258-44.296258 21.470968a182.073806 182.073806 0 0 1-54.073807 13.212903h-93.48129v-64.412903h65.569032c14.798452 0 26.194581-1.651613 32.801033-4.954839l24.576-11.627355-108.147613-76.07329h-1.45342z m106.429935-329.232516v-21.470968h85.28929v21.470968h209.787871v62.860387H2711.386839v425.191226H2637.625806V487.12671h203.082323z" fill="#1afa29" p-id="2053"></path></svg>